:FULLY-SPECIFIED
:FORCE-ALL-JOINTS-BE-3DOF
:DEGREES
1053
root 1.20486 15.1636 32.5572 4.90923 -3.44122 363.354
lfemur 8.39478 0.532256 5.60415
ltibia 0.885942 0 0
lfoot -30.8118 -10.9149 0
ltoes -34.354 0 0
rfemur -30.9897 -15.6266 -6.1965
rtibia 49.9046 0 0
rfoot -21.967 5.3024 0
rtoes -41.23 0 0
lowerback -1.80667 -0.0746006 -0.16885
upperback -0.505222 -0.0651706 -5.93689
thorax 0.487469 -0.0353083 -6.05801
lowerneck -7.08999 0.768 6.39247
upperneck 1.4144 0.338465 3.67009
head 1.65074 0.300192 0.083855
lclavicle 9.88103e-15 -2.05572e-14 0
lhumerus -58.5173 -46.6535 115.356
lradius 55.7333 0 0
lwrist 25.4563 0 0
lhand 37.4511 25.2339 0
lfingers 7.12502 0 0
lthumb 60.2508 38.7479 0
rclavicle 9.88103e-15 -2.05572e-14 0
rhumerus 2.25492 -23.4711 0.536951
rradius 27.545 0 0
rwrist -9.61481 0 0
rhand -30.6743 -42.1929 0
rfingers 7.12502 0 0
rthumb -3.96864 -792.135 0
1054
root 1.20685 15.1638 32.5609 4.91227 -3.4428 363.348
lfemur 8.39069 0.536098 5.59694
ltibia 0.918755 0 0
lfoot -30.8362 -10.9113 0
ltoes -34.3516 0 0
rfemur -30.9712 -15.6148 -6.20363
rtibia 49.8932 0 0
rfoot -21.9574 5.31297 0
rtoes -41.1969 0 0
lowerback -1.81858 -0.0732867 -0.18188
upperback -0.504523 -0.0627371 -5.93517
thorax 0.495161 -0.0339686 -6.04869
lowerneck -7.08609 0.763583 6.39361
upperneck 1.40367 0.333245 3.67357
head 1.64645 0.297251 0.0845498
lclavicle 1.0155e-14 -2.09063e-14 0
lhumerus -58.5108 -46.6554 115.356
lradius 55.7328 0 0
lwrist 25.464 0 0
lhand 37.4569 25.2414 0
lfingers 7.12502 0 0
lthumb 60.2557 38.7501 0
rclavicle 1.0155e-14 -2.09063e-14 0
rhumerus 2.23842 -23.4574 0.548101
rradius 27.5439 0 0
rwrist -9.59738 0 0
rhand -30.6745 -42.1746 0
rfingers 7.12502 0 0
rthumb -3.96881 -792.117 0
1055
root 1.20884 15.164 32.5647 4.91532 -3.44438 363.343
lfemur 8.38659 0.539941 5.58973
ltibia 0.951568 0 0
lfoot -30.8605 -10.9077 0
ltoes -34.3491 0 0
rfemur -30.9527 -15.6029 -6.21076
rtibia 49.8818 0 0
rfoot -21.9477 5.32355 0
rtoes -41.1637 0 0
lowerback -1.83049 -0.0719728 -0.19491
upperback -0.503824 -0.0603036 -5.93345
thorax 0.502853 -0.0326289 -6.03937
lowerneck -7.08219 0.759166 6.39476
upperneck 1.39294 0.328025 3.67706
head 1.64216 0.29431 0.0852446
lclavicle 1.04289e-14 -2.12554e-14 0
lhumerus -58.5042 -46.6573 115.357
lradius 55.7323 0 0
lwrist 25.4718 0 0
lhand 37.4627 25.2489 0
lfingers 7.12502 0 0
lthumb 60.2606 38.7523 0
rclavicle 1.04289e-14 -2.12554e-14 0
rhumerus 2.22192 -23.4437 0.559251
rradius 27.5427 0 0
rwrist -9.57994 0 0
rhand -30.6747 -42.1564 0
rfingers 7.12502 0 0
rthumb -3.96898 -792.099 0
1056
root 1.21083 15.1641 32.5684 4.91836 -3.44596 363.338
lfemur 8.3825 0.543784 5.58252
ltibia 0.98438 0 0
lfoot -30.8848 -10.9041 0
ltoes -34.3467 0 0
rfemur -30.9342 -15.5911 -6.21789
rtibia 49.8704 0 0
rfoot -21.938 5.33412 0
rtoes -41.1305 0 0
lowerback -1.8424 -0.070659 -0.207941
upperback -0.503125 -0.0578701 -5.93173
thorax 0.510545 -0.0312892 -6.03005
lowerneck -7.07829 0.754749 6.39591
upperneck 1.38221 0.322806 3.68054
head 1.63787 0.291368 0.0859394
lclavicle 1.07028e-14 -2.16045e-14 0
lhumerus -58.4976 -46.6592 115.357
lradius 55.7318 0 0
lwrist 25.4796 0 0
lhand 37.4684 25.2563 0
lfingers 7.12502 0 0
lthumb 60.2655 38.7545 0
rclavicle 1.07028e-14 -2.16045e-14 0
rhumerus 2.20542 -23.4301 0.570401
rradius 27.5416 0 0
rwrist -9.5625 0 0
rhand -30.6749 -42.1381 0
rfingers 7.12502 0 0
rthumb -3.96915 -792.081 0
1057
root 1.21282 15.1643 32.5722 4.9214 -3.44753 363.332
lfemur 8.37841 0.547627 5.57532
ltibia 1.01719 0 0
lfoot -30.9091 -10.9005 0
ltoes -34.3443 0 0
rfemur -30.9157 -15.5792 -6.22502
rtibia 49.8589 0 0
rfoot -21.9284 5.34469 0
rtoes -41.0974 0 0
lowerback -1.85431 -0.0693451 -0.220971
upperback -0.502426 -0.0554366 -5.93001
thorax 0.518236 -0.0299494 -6.02073
lowerneck -7.07439 0.750331 6.39706
upperneck 1.37148 0.317586 3.68403
head 1.63359 0.288427 0.0866342
lclavicle 1.09768e-14 -2.19535e-14 0
lhumerus -58.4911 -46.6612 115.358
lradius 55.7314 0 0
lwrist 25.4873 0 0
lhand 37.4742 25.2638 0
lfingers 7.12502 0 0
lthumb 60.2704 38.7567 0
rclavicle 1.09768e-14 -2.19535e-14 0
rhumerus 2.18892 -23.4164 0.581551
rradius 27.5405 0 0
rwrist -9.54507 0 0
rhand -30.675 -42.1199 0
rfingers 7.12502 0 0
rthumb -3.96932 -792.062 0
1058
root 1.21481 15.1645 32.5759 4.92444 -3.44911 363.327
lfemur 8.37432 0.551469 5.56811
ltibia 1.05001 0 0
lfoot -30.9335 -10.8969 0
ltoes -34.3418 0 0
rfemur -30.8972 -15.5674 -6.23215
rtibia 49.8475 0 0
rfoot -21.9187 5.35526 0
rtoes -41.0642 0 0
lowerback -1.86622 -0.0680312 -0.234001
upperback -0.501727 -0.0530031 -5.92829
thorax 0.525928 -0.0286097 -6.01141
lowerneck -7.07049 0.745914 6.3982
upperneck 1.36075 0.312366 3.68751
head 1.6293 0.285486 0.087329
lclavicle 1.12507e-14 -2.23026e-14 0
lhumerus -58.4845 -46.6631 115.358
lradius 55.7309 0 0
lwrist 25.4951 0 0
lhand 37.48 25.2712 0
lfingers 7.12502 0 0
lthumb 60.2753 38.7589 0
rclavicle 1.12507e-14 -2.23026e-14 0
rhumerus 2.17242 -23.4028 0.592701
rradius 27.5393 0 0
rwrist -9.52763 0 0
rhand -30.6752 -42.1016 0
rfingers 7.12502 0 0
rthumb -3.96949 -792.044 0
